 http://www.silvertorrent.org 
http://silvertorrent.org/index.php?page=torrent-details&id=732e5fb674b142acf7e1c4d16f4de7b661c7c8d5 
http://www.shotpix.com/images/08096634903738710469.png 
http://piczend.com/img.php?image=9019_struck_by_lightning_089l.jpg

File size                                : 1.23 GiB
Duration                                 : 1h 24mn
Overall bit rate mode                    : Variable
Overall bit rate                         : 2 092 Kbps
Writing application                      : BandiAviMuxer 1.0


Video
ID                                       : 0
Format                                   : MPEG Video
Format version                           : Version 1
Format settings, BVOP                    : No
Format settings, Matrix                  : Default
Codec ID                                 : MPEG
Codec ID/Info                            : Chromatic MPEG 1 Video I Frame
Duration                                 : 1h 24mn
Bit rate mode                            : Variable
Bit rate                                 : 1 883 Kbps
Width                                    : 1 008 pixels
Height                                   : 564 pixels
Display aspect ratio                     : 16:9
Frame rate                               : 30.000 fps
Color space                              : YUV
Chroma subsampling                       : 4:2:0
Bit depth                                : 8 bits
Scan type                                : Progressive
Compression mode                         : Lossy
Bits/(Pixel*Frame)                       : 0.110
Stream size                              : 1.11 GiB (90%)


Audio
ID                                       : 1
Format                                   : MPEG Audio
Format version                           : Version 1
Format profile                           : Layer 2
Codec ID                                 : 50
Duration                                 : 1h 24mn
Bit rate mode                            : Constant
Bit rate                                 : 192 Kbps
Channel(s)                               : 2 channels
Sampling rate                            : 48.0 KHz
Compression mode                         : Lossy
Stream size                              : 115 MiB (9%)
Alignment                                : Aligned on interleaves
Interleave, duration                     : 24 ms (0.72 video frame)


IMDB URL http://www.imdb.com/title/tt1791614/ 
http://silvertorrent.org/index.php?page=torrent-details&id=732e5fb674b142acf7e1c4d16f4de7b661c7c8d5 
http://piczend.com/img.php?image=6890_frame4_r73r.png
http://piczend.com/img.php?image=1623_frame3_wueg.png
http://piczend.com/img.php?image=4682_frame2_zmpe.png
http://piczend.com/img.php?image=8410_frame1_egib.png
http://piczend.com/img.php?image=3932_frame0_3xq1.png